<svg width="29" height="30" viewBox="0 0 29 30" fill="none" xmlns="http://www.w3.org/2000/svg">
<path d="M26.7401 7.26C22.4201 0.6 13.6001 -1.38 6.76009 2.76C0.100091 6.9 -2.05991 15.9 2.26009 22.56L2.62009 23.1L1.18009 28.5L6.58009 27.06L7.12009 27.42C9.46009 28.68 11.9801 29.4 14.5001 29.4C17.2001 29.4 19.9001 28.68 22.2401 27.24C28.9001 22.92 30.8801 14.1 26.7401 7.26ZM22.9601 21.12C22.2401 22.2 21.3401 22.92 20.0801 23.1C19.3601 23.1 18.4601 23.46 14.8601 22.02C11.8001 20.58 9.28009 18.24 7.48009 15.54C6.40009 14.28 5.86009 12.66 5.68009 11.04C5.68009 9.6 6.22009 8.34 7.12009 7.44C7.48009 7.08 7.84009 6.9 8.20009 6.9H9.10009C9.46009 6.9 9.82009 6.9 10.0001 7.62C10.3601 8.52 11.2601 10.68 11.2601 10.86C11.4401 11.04 11.4401 11.4 11.2601 11.58C11.4401 11.94 11.2601 12.3 11.0801 12.48C10.9001 12.66 10.7201 13.02 10.5401 13.2C10.1801 13.38 10.0001 13.74 10.1801 14.1C10.9001 15.18 11.8001 16.26 12.7001 17.16C13.7801 18.06 14.8601 18.78 16.1201 19.32C16.4801 19.5 16.8401 19.5 17.0201 19.14C17.2001 18.78 18.1001 17.88 18.4601 17.52C18.8201 17.16 19.0001 17.16 19.3601 17.34L22.2401 18.78C22.6001 18.96 22.9601 19.14 23.1401 19.32C23.3201 19.86 23.3201 20.58 22.9601 21.12Z" fill="black"/>
</svg>
